<?xml version="1.0" encoding="UTF-8" standalone="no"?>
<svg width="135px" height="46px" viewBox="0 0 135 46" version="1.1" xmlns="http://www.w3.org/2000/svg" xmlns:xlink="http://www.w3.org/1999/xlink">
    <!-- Generator: Sketch 3.7 (28169) - http://www.bohemiancoding.com/sketch -->
    <title>Page 1</title>
    <desc>Created with Sketch.</desc>
    <defs>
        <polyline id="path-1" points="0 0.222405765 134.885953 0.222405765 134.885953 45.4988914 0 45.4988914"></polyline>
        <polygon id="path-3" points="0 0.222405765 134.885953 0.222405765 134.885953 45.4988914 0 45.4988914"></polygon>
    </defs>
    <g id="Symbols" stroke="none" stroke-width="1" fill="none" fill-rule="evenodd">
        <g id="FOOTER" transform="translate(-762.000000, -51.000000)">
            <g id="Page-1">
                <g transform="translate(762.000000, 51.000000)">
                    <polygon id="Fill-1" fill="#FFFFFF" points="19.6452838 21.2172106 13.4286984 34.4056031 7.24653659 21.2172106 -5.98669631e-05 21.2172106 -5.98669631e-05 45.2241619 5.35773392 45.2241619 5.35773392 30.1122439 11.8146851 43.2320887 15.0085876 43.2320887 21.4999623 30.1122439 21.4999623 45.2241619 26.8577561 45.2241619 26.8577561 21.2172106"></polygon>
                    <g id="Group-14">
                        <path d="M33.9952749,35.9853426 C33.9952749,37.496684 34.4245211,38.7275488 35.2833126,39.6773381 C36.1418049,40.6277262 37.2409623,41.1027705 38.5801863,41.1027705 C39.9197095,41.1027705 41.018867,40.6277262 41.8773592,39.6773381 C42.7361508,38.7275488 43.1653969,37.496684 43.1653969,35.9853426 C43.1653969,34.4743004 42.7361508,33.2377483 41.8773592,32.2759856 C41.018867,31.3145222 39.9197095,30.8337905 38.5801863,30.8337905 C37.2409623,30.8337905 36.1418049,31.3145222 35.2833126,32.2759856 C34.4245211,33.2377483 33.9952749,34.4743004 33.9952749,35.9853426 M48.3513725,35.9853426 C48.3513725,38.6643891 47.4240333,40.9198769 45.5696541,42.7512073 C43.7149756,44.5834357 41.3846541,45.4988016 38.5801863,45.4988016 C35.7754191,45.4988016 33.4456962,44.5834357 31.5910177,42.7512073 C29.7366386,40.9198769 28.8092993,38.6643891 28.8092993,35.9853426 C28.8092993,33.3065953 29.7366386,31.0457195 31.5910177,29.2024157 C33.4456962,27.3594113 35.7754191,26.4374601 38.5801863,26.4374601 C41.3846541,26.4374601 43.7149756,27.3594113 45.5696541,29.2024157 C47.4240333,31.0457195 48.3513725,33.3065953 48.3513725,35.9853426" id="Fill-2" fill="#FFFFFF"></path>
                        <path d="M55.489071,36.0197062 C55.489071,37.5082982 55.9356785,38.7274889 56.8285942,39.6772783 C57.72151,40.6279656 58.7631951,41.1027106 59.953949,41.1027106 C61.1441042,41.1027106 62.1573525,40.6279656 62.9933947,39.6772783 C63.8288381,38.7274889 64.2470089,37.5023115 64.2470089,36.0026441 C64.2470089,34.5032761 63.8288381,33.2550499 62.9933947,32.2588636 C62.1573525,31.2629767 61.1327295,30.7648836 59.9195255,30.7648836 C58.7057228,30.7648836 57.6640377,31.2689634 56.7941707,32.2762251 C55.9237051,33.283786 55.489071,34.5317129 55.489071,36.0197062 M58.734459,45.4987417 C56.5478182,45.4987417 54.5961552,44.5714024 52.8788714,42.7170233 C51.1615876,40.8623448 50.302796,38.5610588 50.302796,35.8137639 C50.302796,33.0661696 51.1385388,30.8163692 52.8100244,29.0649612 C54.4812106,27.3132539 56.4388603,26.4374002 58.6829734,26.4374002 C60.9267871,26.4374002 62.7584169,27.2273448 64.1784612,28.8072339 L64.1784612,19.7403825 L69.3300133,19.7403825 L69.3300133,45.2242517 L64.1784612,45.2242517 L64.1784612,42.785571 C62.7359667,44.5947506 60.9208004,45.4987417 58.734459,45.4987417" id="Fill-4" fill="#FFFFFF"></path>
                        <g id="Group-8">
                            <mask id="mask-2" fill="white">
                                <use xlink:href="#path-1"></use>
                            </mask>
                            <g id="Clip-7"></g>
                            <path d="M83.4053647,36.7066197 L83.4053647,26.7465532 L88.5913404,26.7465532 L88.5913404,45.2241918 L83.4053647,45.2241918 L83.4053647,42.7858104 C82.1227151,44.5946907 80.4688902,45.4989812 78.4426929,45.4989812 C76.4161962,45.4989812 74.7159745,44.8634933 73.3423271,43.5928171 C71.9683803,42.3218415 71.2817062,40.4390255 71.2817062,37.9428725 L71.2817062,26.7465532 L76.4676818,26.7465532 L76.4676818,36.8095909 C76.4676818,39.6490809 77.509367,41.0685266 79.5930366,41.0685266 C80.623347,41.0685266 81.5162627,40.6964534 82.2720831,39.9523071 C83.0276042,39.2084601 83.4053647,38.1266641 83.4053647,36.7066197" id="Fill-6" fill="#FFFFFF" mask="url(#mask-2)"></path>
                        </g>
                        <mask id="mask-4" fill="white">
                            <use xlink:href="#path-3"></use>
                        </mask>
                        <g id="Clip-10"></g>
                        <polygon id="Fill-9" fill="#FFFFFF" mask="url(#mask-4)" points="95.6946452 45.224102 90.5427938 45.224102 90.5427938 19.7402328 95.6946452 19.7402328"></polygon>
                        <path d="M107.365769,31.2800987 C105.831379,31.2800987 104.686723,31.8242894 103.931202,32.9114734 C103.175681,33.9992561 102.79792,35.4357639 102.79792,37.2218947 L102.79792,45.2240122 L97.6460687,45.2240122 L97.6460687,26.7466729 L102.79792,26.7466729 L102.79792,29.1850543 C103.461845,28.4295333 104.2919,27.7886574 105.287787,27.2618282 C106.283973,26.7352982 107.297222,26.4605089 108.327532,26.4374601 L108.361656,31.2800987 L107.365769,31.2800987 Z" id="Fill-11" fill="#FFFFFF" mask="url(#mask-4)"></path>
                        <polygon id="Fill-12" fill="#FFDD00" mask="url(#mask-4)" points="125.1271 9.98125942 125.1271 0.222345898 105.609273 0.222345898 105.609273 19.7401729 115.368186 19.7401729 115.368186 9.98125942"></polygon>
                        <polygon id="Fill-13" fill="#FFDD00" mask="url(#mask-4)" points="125.1271 9.98125942 125.1271 19.7401729 115.368186 19.7401729 115.368186 29.4990865 134.886013 29.4990865 134.886013 9.98125942"></polygon>
                    </g>
                </g>
            </g>
        </g>
    </g>
</svg>